HIERARCHY
ROOT Hips
{
	OFFSET 0.000000 0.000000 0.000000 
	CHANNELS 6 Xposition Yposition Zposition Yrotation Zrotation Xrotation 
	JOINT Lumbar
	{
		OFFSET 0.000000 0.000000 0.000000 
		CHANNELS 3 Zrotation Xrotation Yrotation
		JOINT Neck
		{
			OFFSET 0.000000 0.445665 0.000000 
			CHANNELS 3 Zrotation Xrotation Yrotation
			End Site
			{
				OFFSET 0.000000 0.227535 0.000000 
			}
		}
		JOINT RightShoulder
		{
			OFFSET 0.019635 0.377685 0.194865 
			CHANNELS 3 Zrotation Xrotation Yrotation
			JOINT RightElbow
			{
				OFFSET 0.000000 -0.243375 0.000000 
				CHANNELS 2 Zrotation Yrotation
				JOINT RightWrist
				{
					OFFSET 0.000000 -0.264825 0.000000 
					CHANNELS 2 Zrotation Xrotation
					End Site
					{
						OFFSET 0.006600 -0.176220 0.000990 
					}
				}
			}
		}
		JOINT LeftShoulder
		{
			OFFSET 0.019635 0.377685 -0.194865 
			CHANNELS 3 Zrotation Xrotation Yrotation
			JOINT LeftElbow
			{
				OFFSET 0.000000 -0.243375 0.000000 
				CHANNELS 2 Zrotation Yrotation
				JOINT LeftWrist
				{
					OFFSET 0.000000 -0.264825 0.000000 
					CHANNELS 2 Zrotation Xrotation
					End Site
					{
						OFFSET 0.006600 -0.176220 -0.000990 
					}
				}
			}
		}
	}
	JOINT RightHip
	{
		OFFSET 0.052140 -0.069960 0.075570 
		CHANNELS 3 Zrotation Xrotation Yrotation
		JOINT RightKnee
		{
			OFFSET 0.000000 -0.402270 0.000000 
			CHANNELS 1 Zrotation
			JOINT RightAnkle
			{
				OFFSET 0.000000 -0.404085 0.000000 
				CHANNELS 3 Zrotation Xrotation Yrotation
				End Site
				{
					OFFSET 0.204105 -0.089430 0.008415 
				}
			}
		}
	}
	JOINT LeftHip
	{
		OFFSET 0.052140 -0.069960 -0.075570 
		CHANNELS 3 Zrotation Xrotation Yrotation
		JOINT LeftKnee
		{
			OFFSET 0.000000 -0.402270 0.000000 
			CHANNELS 1 Zrotation
			JOINT LeftAnkle
			{
				OFFSET 0.000000 -0.404085 0.000000 
				CHANNELS 3 Zrotation Xrotation Yrotation
				End Site
				{
					OFFSET 0.204105 -0.089430 -0.008415 
				}
			}
		}
	}
}
MOTION
Frames: 20
Frame Time: 0.02
-0.25089 0.96749 0.06697 569.6041 0 -6.96979 3.16704 12.76599 -6.58792 -58.62073 11.67265 16.5113 92.89936 -72.33838 8.66354 51.71347 83.57106 -1.57142 -6.50105 48.85779 -7.25782 -36.6112 14.18407 -80.22895 -2.90593 5.0324 -2.1231 8.5445 3.85577 -8.52779 -12.29087 -2.62905 -9.01804 3.06811 15.25567 4.94322 -16.53639 -3.01735 4.09689 10.01889
-0.25099 0.96756 0.0752 569.16232 0 -7.04888 3.66567 12.62509 -6.1847 -58.25596 11.02949 15.39871 87.14547 -70.08808 2.8919 51.58232 84.16432 -2.06386 -7.39754 48.64719 -6.10313 -36.28346 14.35592 -80.2059 -3.10208 5.08781 -2.05481 8.29901 4.63624 -8.97167 -12.22963 -2.60248 -9.32501 2.52628 14.96113 5.54148 -16.24834 -2.93138 4.08593 10.12052
-0.24998 0.96809 0.08378 568.8607 0 -7.00896 4.03733 12.42417 -5.89913 -57.63518 10.33534 14.12632 81.93539 -67.50864 -2.1466 51.52918 85.04934 -2.08034 -8.34277 48.17025 -4.81189 -35.86022 14.55343 -80.1767 -3.37914 5.15113 -1.87043 7.91494 5.3957 -9.56367 -12.20678 -2.54656 -9.76557 2.10054 14.47332 6.17075 -15.93061 -2.86584 4.04151 10.14666
-0.2494 0.96839 0.09221 568.49187 0 -7.02181 4.45677 12.25414 -5.5554 -57.1288 9.66135 12.92854 76.5361 -65.08717 -7.45264 51.42587 85.91352 -2.36855 -9.24293 47.80734 -3.57511 -35.49736 14.74518 -80.15886 -3.61506 5.2114 -1.73047 7.59128 6.16516 -10.09717 -12.16285 -2.50535 -10.14149 1.63272 14.07152 6.78969 -15.64137 -2.78347 4.0162 10.20295
-0.24915 0.96878 0.10061 568.13475 0 -7.04302 4.92018 12.07234 -5.2231 -56.63506 8.9932 11.71277 70.82272 -62.6156 -13.11823 51.39129 86.34965 -2.42881 -10.2437 47.47899 -2.35926 -35.06598 14.91536 -80.10716 -3.87039 5.26852 -1.6258 7.27912 6.93725 -10.59428 -12.13283 -2.45872 -10.53604 1.11012 13.6779 7.41027 -15.26921 -2.73287 3.97407 10.26774
-0.24793 0.96908 0.10915 567.78667 0 -7.01678 5.26059 11.89903 -4.89878 -56.0547 8.30499 10.50347 65.92575 -60.18098 -17.8241 51.22929 87.71082 -2.84227 -11.04416 47.01583 -1.07579 -34.75259 15.13438 -80.12299 -4.10389 5.3345 -1.41811 6.90983 7.69952 -11.20489 -12.08326 -2.41644 -10.92328 0.73258 13.21986 8.02597 -15.06895 -2.62144 3.95901 10.30254
-0.24438 0.9691 0.11798 567.44276 0 -6.8975 5.29844 11.76913 -4.56045 -55.27059 7.55483 9.31091 63.07423 -57.86578 -20.11879 50.69876 91.79154 -4.42452 -11.28996 46.2168 0.41175 -34.79871 15.49303 -80.33499 -4.26044 5.42181 -0.97718 6.41712 8.40827 -12.05858 -11.97412 -2.39103 -11.24983 0.73097 12.64757 8.64657 -15.36505 -2.33189 4.02874 10.24547
-0.23989 0.96901 0.12692 567.10165 0 -6.73288 5.21577 11.64844 -4.22885 -54.41238 6.79083 8.1387 61.04939 -55.61228 -21.45015 50.03564 96.74668 -6.36429 -11.33019 45.29573 1.95209 -34.96461 15.89751 -80.61343 -4.39156 5.51801 -0.43221 5.87191 9.11135 -13.02778 -11.8441 -2.37125 -11.5647 0.8716 12.01451 9.25437 -15.83426 -1.98164 4.12654 10.16632
-0.23578 0.96894 0.13581 566.7504 0 -6.58267 5.18382 11.51966 -3.89961 -53.60477 6.04596 6.98443 58.70376 -53.37309 -23.17347 49.43115 101.1421 -8.0902 -11.45723 44.44817 3.43427 -35.06858 16.27349 -80.85583 -4.53214 5.61112 0.07925 5.34986 9.83835 -13.9651 -11.72065 -2.35045 -11.89065 0.94668 11.39833 9.84861 -16.21932 -1.66208 4.21047 10.117
-0.23182 0.969 0.14471 566.43948 0 -6.45359 5.16367 11.40532 -3.55014 -52.71631 5.24369 5.70977 56.141 -50.94307 -25.06913 48.83767 106.22995 -10.017 -11.6137 43.5147 5.06622 -35.2009 16.683 -81.12263 -4.68432 5.70082 0.53492 4.82431 10.48018 -14.81814 -11.60847 -2.32256 -12.20017 1.03143 10.81952 10.52528 -16.63109 -1.32879 4.29822 9.98371
-0.22735 0.96876 0.15362 566.0458 0 -6.2724 5.09311 11.26386 -3.24455 -51.98271 4.56005 4.6927 54.22394 -48.92998 -26.38253 48.18711 110.08373 -11.61577 -11.65973 42.73532 6.39612 -35.30385 17.03294 -81.35458 -4.80536 5.79924 1.13214 4.29742 11.29139 -15.87532 -11.47033 -2.31065 -12.53536 1.12587 10.15244 11.02772 -17.02252 -1.01109 4.38475 10.01813
-0.22168 0.96773 0.16263 565.40338 0 -5.94955 4.90415 11.04523 -3.04452 -51.68922 4.19368 4.38388 53.85351 -48.05073 -26.35616 47.42329 110.27422 -12.22881 -11.44785 42.40572 6.88523 -35.29751 17.20917 -81.47316 -4.84482 5.92263 2.07431 3.76369 12.63007 -17.43874 -11.23906 -2.34571 -12.9799 1.23285 9.24555 11.0426 -17.3694 -0.73758 4.46408 10.54563
-0.21554 0.96641 0.17164 564.68158 0 -5.57838 4.67131 10.79924 -2.89078 -51.55616 3.95011 4.33383 54.10744 -47.59069 -25.77502 46.60311 109.19831 -12.5001 -11.13232 42.23726 7.06695 -35.25825 17.32334 -81.55468 -4.85353 6.05366 3.1575 3.23458 14.12813 -19.2068 -10.9865 -2.39599 -13.44465 1.33994 8.2555 10.88402 -17.67933 -0.48469 4.54065 11.23746
-0.20964 0.96524 0.1806 564.00685 0 -5.23538 4.46436 10.56611 -2.72396 -51.35503 3.65941 4.16518 54.09632 -46.94246 -25.42939 45.80156 108.7286 -12.92562 -10.86601 42.00068 7.38426 -35.23316 17.46449 -81.65366 -4.87741 6.17943 4.19027 2.71394 15.51559 -20.90154 -10.76177 -2.43667 -13.87447 1.43337 7.31095 10.81112 -17.97183 -0.23075 4.61683 11.83962
-0.20359 0.96397 0.18978 563.28148 0 -4.86328 4.22627 10.33158 -2.52242 -51.13199 3.3311 4.00232 54.03862 -46.28794 -25.11753 45.0284 108.16219 -13.36898 -10.58338 41.74019 7.71967 -35.21347 17.61251 -81.75192 -4.89633 6.314 5.17337 2.1448 17.06582 -22.52362 -10.46242 -2.48889 -14.40736 1.59071 6.32928 10.70948 -18.41748 0.062 4.70154 12.50842
-0.19776 0.96286 0.19848 562.6482 0 -4.54243 4.04642 10.0932 -2.4059 -50.9921 3.11104 3.88738 54.21139 -45.74335 -24.61911 44.1801 107.48239 -13.68804 -10.31314 41.56677 7.94514 -35.17575 17.73078 -81.84256 -4.91743 6.43078 6.28661 1.68092 18.31266 -24.33618 -10.31027 -2.52057 -14.73719 1.61132 5.40895 10.62591 -18.5298 0.26622 4.76666 13.07249
-0.19247 0.96218 0.206 562.24113 0 -4.3619 4.01964 9.85211 -2.49649 -51.05666 3.15443 3.85186 54.89638 -45.41637 -23.72231 43.17636 106.81584 -13.75714 -10.09991 41.61772 7.92974 -35.07315 17.78295 -81.91611 -4.96251 6.50662 7.77018 1.48608 18.70373 -26.69025 -10.59848 -2.49273 -14.4421 1.26957 4.65342 10.64016 -17.75972 0.24845 4.78553 13.35379
-0.18744 0.96167 0.21301 561.93821 0 -4.23691 4.05684 9.60759 -2.67354 -51.19687 3.30296 3.85331 55.78126 -45.18178 -22.66583 42.09301 106.07082 -13.7087 -9.90398 41.74683 7.81695 -34.95684 17.80715 -81.98376 -5.00923 6.5625 9.37041 1.40095 18.78121 -29.21489 -11.02972 -2.44375 -13.95199 0.78729 3.96727 10.67684 -16.65051 0.13918 4.78345 13.51638
-0.1824 0.96113 0.22019 561.61887 0 -4.09572 4.07774 9.36411 -2.82235 -51.29398 3.40778 3.83129 56.55286 -44.89427 -21.69929 41.02096 105.34716 -13.70691 -9.70319 41.82574 7.75592 -34.86194 17.84305 -82.05731 -5.04823 6.62067 10.88743 1.27952 18.98715 -31.61933 -11.37752 -2.40353 -13.59143 0.35786 3.26629 10.70072 -15.67495 0.05946 4.78592 13.70171
-0.1769 0.96041 0.22766 561.16669 0 -3.91618 4.04396 9.12287 -2.92824 -51.43458 3.50233 3.84768 57.44541 -44.66928 -20.63758 40.04959 104.64252 -13.72492 -9.48702 41.97298 7.65012 -34.70363 17.88014 -82.11659 -5.11473 6.70712 12.53866 1.10168 19.25343 -34.21611 -11.80484 -2.36646 -13.06321 -0.02755 2.49272 10.73278 -14.77907 0.02801 4.80869 14.02068
